<?xml version="1.0" standalone="no"?>
<!DOCTYPE svg PUBLIC "-//W3C//DTD SVG 1.1//EN" "http://www.w3.org/Graphics/SVG/1.1/DTD/svg11.dtd" >
<svg xmlns="http://www.w3.org/2000/svg">
  <metadata>Created by iconfont</metadata>
  <defs>
  <font id="iconfont" horiz-adv-x="1024">
    <font-face
      font-family="iconfont"
      font-weight="400"
      font-stretch="normal"
      units-per-em="1024"
      ascent="896"
      descent="-128"
    />
      <missing-glyph />
      
      <glyph glyph-name="add" unicode="&#59085;" d="M957.44 450.56h-378.88V829.44c0 36.864-29.696 66.56-66.56 66.56S445.44 866.304 445.44 829.44v-378.88H66.56c-36.864 0-66.56-29.696-66.56-66.56s29.696-66.56 66.56-66.56h378.88v-378.88c0-36.864 29.696-66.56 66.56-66.56s66.56 29.696 66.56 66.56v378.88h378.88c36.864 0 66.56 29.696 66.56 66.56s-29.696 66.56-66.56 66.56z"  horiz-adv-x="1024" />
      
      <glyph glyph-name="music" unicode="&#58981;" d="M552.228 497.846c-49.558 17.522-104.756 0.952-136.472-40.966-31.714-41.918-32.65-99.542-2.314-142.468 30.336-42.928 84.968-61.28 135.07-45.38 50.1 15.904 84.146 62.404 84.174 114.968V767.86c163.208-51.25 281.6-203.716 281.6-383.86 0-222.182-180.104-402.286-402.286-402.286S109.714 161.82000000000005 109.714 384 289.82 786.2860000000001 512 786.2860000000001c13.558 0 26.994-0.684 40.228-2.012v-286.428z"  horiz-adv-x="1024" />
      
      <glyph glyph-name="play-mini" unicode="&#58930;" d="M512 893.72444445c281.51352889 0 509.72444445-228.21091555 509.72444445-509.72444445S793.51352889-125.72444444999996 512-125.72444444999996 2.27555555 102.48647111000002 2.27555555 384 230.48647111 893.72444445 512 893.72444445z m0-91.02222223c-231.24195555 0-418.70222222-187.46026667-418.70222222-418.70222222s187.46026667-418.70222222 418.70222222-418.70222222 418.70222222 187.46026667 418.70222222 418.70222222-187.46026667 418.70222222-418.70222222 418.70222222z m-91.02222222-224.62805333a36.40888889 36.40888889 0 0 0 18.20444444-4.87879111l273.07008-157.66528c17.41368889-10.05340445 23.38019555-32.32085333 13.32565333-49.73568a36.40888889 36.40888889 0 0 0-13.32565333-13.32451556L439.18336 194.80462222000006c-17.41482667-10.05454222-39.68227555-4.08917333-49.73568 13.32451556A36.40888889 36.40888889 0 0 0 384.56888889 226.33471999999995V541.6652799999999c0 20.10794667 16.30094222 36.40888889 36.40888889 36.40888889z"  horiz-adv-x="1024" />
      
      <glyph glyph-name="play" unicode="&#59547;" d="M512 893.72444445c281.51352889 0 509.72444445-228.21091555 509.72444445-509.72444445S793.51352889-125.72444444999996 512-125.72444444999996 2.27555555 102.48647111000002 2.27555555 384 230.48647111 893.72444445 512 893.72444445z m0-91.02222223c-231.24195555 0-418.70222222-187.46026667-418.70222222-418.70222222s187.46026667-418.70222222 418.70222222-418.70222222 418.70222222 187.46026667 418.70222222 418.70222222-187.46026667 418.70222222-418.70222222 418.70222222z m-91.02222222-224.62805333a36.40888889 36.40888889 0 0 0 18.20444444-4.87879111l273.07008-157.66528c17.41368889-10.05340445 23.38019555-32.32085333 13.32565333-49.73568a36.40888889 36.40888889 0 0 0-13.32565333-13.32451556L439.18336 194.80462222000006c-17.41482667-10.05454222-39.68227555-4.08917333-49.73568 13.32451556A36.40888889 36.40888889 0 0 0 384.56888889 226.33471999999995V541.6652799999999c0 20.10794667 16.30094222 36.40888889 36.40888889 36.40888889z"  horiz-adv-x="1024" />
      
      <glyph glyph-name="pause-mini" unicode="&#58960;" d="M512-32a416 416 0 1 1 0 832 416 416 0 0 1 0-832z m0-96A512 512 0 1 0 512 896a512 512 0 0 0 0-1024zM345.984 507.776a48 48 0 1 0 96 0v-288a48 48 0 0 0-96 0v288z m217.28 2.496a48 48 0 1 0 96 0v-288a48 48 0 1 0-96 0v288z"  horiz-adv-x="1024" />
      
      <glyph glyph-name="pause" unicode="&#59548;" d="M512-32a416 416 0 1 1 0 832 416 416 0 0 1 0-832z m0-96A512 512 0 1 0 512 896a512 512 0 0 0 0-1024zM345.984 507.776a48 48 0 1 0 96 0v-288a48 48 0 0 0-96 0v288z m217.28 2.496a48 48 0 1 0 96 0v-288a48 48 0 1 0-96 0v288z"  horiz-adv-x="1024" />
      
      <glyph glyph-name="close" unicode="&#58884;" d="M622.276923 387.938462l257.969231 257.96923c11.815385 11.815385 11.815385 29.538462 0 41.353846l-41.353846 41.353847c-11.815385 11.815385-29.538462 11.815385-41.353846 0L539.569231 470.646154c-7.876923-7.876923-19.692308-7.876923-27.569231 0L254.030769 730.584615c-11.815385 11.815385-29.538462 11.815385-41.353846 0l-41.353846-41.353846c-11.815385-11.815385-11.815385-29.538462 0-41.353846l257.969231-257.969231c7.876923-7.876923 7.876923-19.692308 0-27.56923L169.353846 102.4c-11.815385-11.815385-11.815385-29.538462 0-41.353846l41.353846-41.353846c11.815385-11.815385 29.538462-11.815385 41.353846 0L512 277.661538c7.876923 7.876923 19.692308 7.876923 27.569231 0l257.969231-257.96923c11.815385-11.815385 29.538462-11.815385 41.353846 0l41.353846 41.353846c11.815385 11.815385 11.815385 29.538462 0 41.353846L622.276923 360.369231c-5.907692 7.876923-5.907692 19.692308 0 27.569231z"  horiz-adv-x="1024" />
      
      <glyph glyph-name="ok" unicode="&#58991;" d="M926.3 558.1c-22.6 53.3-54.8 101.2-96 142.3-41.1 41.1-89 73.4-142.3 96-55.2 23.4-113.9 35.2-174.3 35.2S394.6 819.8 339.3 796.4c-53.3-22.6-101.2-54.8-142.3-96-41.1-41.1-73.4-89-96-142.3-23.4-55.2-35.2-113.9-35.2-174.3 0-60.4 11.8-119.1 35.2-174.3 22.6-53.3 54.8-101.2 96-142.3 41.1-41.1 89-73.4 142.3-96 55.2-23.4 113.9-35.2 174.3-35.2s119.1 11.8 174.3 35.2c53.3 22.6 101.2 54.8 142.3 96 41.1 41.1 73.4 89 96 142.3 23.4 55.2 35.2 113.9 35.2 174.3 0.1 60.4-11.8 119.1-35.1 174.3zM513.7 16.899999999999977c-202.3 0-366.9 164.6-366.9 366.9s164.6 366.9 366.9 366.9c202.3 0 366.9-164.6 366.9-366.9S716 16.899999999999977 513.7 16.899999999999977zM715.6 524.4c-15.7 15.7-41.4 15.7-57 0l-196-196-95.9 95.9c-15.7 15.7-41.4 15.7-57 0-15.7-15.7-15.7-41.4 0-57l124.5-124.5c15.7-15.7 41.4-15.7 57 0l224.5 224.5c15.6 15.7 15.6 41.4-0.1 57.1z"  horiz-adv-x="1024" />
      
      <glyph glyph-name="dismiss" unicode="&#58948;" d="M512 853.333333C251.733333 853.333333 42.666667 644.266667 42.666667 384s209.066667-469.333333 469.333333-469.333333 469.333333 209.066667 469.333333 469.333333S772.266667 853.333333 512 853.333333z m0-853.333333c-213.333333 0-384 170.666667-384 384s170.666667 384 384 384 384-170.666667 384-384-170.666667-384-384-384z m157.866667 541.866667c-17.066667 17.066667-42.666667 17.066667-59.733334 0L512 443.733333 413.866667 541.866667c-17.066667 17.066667-42.666667 12.8-59.733334-4.266667-17.066667-17.066667-17.066667-42.666667 0-59.733333l98.133334-98.133334-98.133334-98.133333c-17.066667-17.066667-21.333333-42.666667-4.266666-59.733333 17.066667-17.066667 42.666667-21.333333 59.733333-4.266667l4.266667 4.266667 98.133333 98.133333 98.133333-98.133333c17.066667-17.066667 46.933333-12.8 59.733334 4.266666 12.8 17.066667 12.8 38.4 0 55.466667L571.733333 384l98.133334 98.133333c17.066667 17.066667 17.066667 42.666667 0 59.733334z"  horiz-adv-x="1024" />
      
      <glyph glyph-name="play-fill" unicode="&#59183;" d="M512 746.666667c200.298667 0 362.666667-162.368 362.666667-362.666667s-162.368-362.666667-362.666667-362.666667S149.333333 183.701333 149.333333 384 311.701333 746.666667 512 746.666667z m-50.56-234.666667c-19.2 0-34.773333-15.573333-34.773333-34.773333v-182.997334a34.773333 34.773333 0 0 1 53.546666-29.248l143.808 92.394667a34.773333 34.773333 0 0 1-0.256 58.666667l-143.808 90.602666a34.773333 34.773333 0 0 1-18.538666 5.354667z"  horiz-adv-x="1024" />
      
      <glyph glyph-name="no-copy" unicode="&#59549;" d="M512 853.333333C251.733333 853.333333 42.666667 644.266667 42.666667 384s209.066667-469.333333 469.333333-469.333333 469.333333 209.066667 469.333333 469.333333S772.266667 853.333333 512 853.333333z m0-853.333333c-213.333333 0-384 170.666667-384 384s170.666667 384 384 384 384-170.666667 384-384-170.666667-384-384-384z m157.866667 541.866667c-17.066667 17.066667-42.666667 17.066667-59.733334 0L512 443.733333 413.866667 541.866667c-17.066667 17.066667-42.666667 12.8-59.733334-4.266667-17.066667-17.066667-17.066667-42.666667 0-59.733333l98.133334-98.133334-98.133334-98.133333c-17.066667-17.066667-21.333333-42.666667-4.266666-59.733333 17.066667-17.066667 42.666667-21.333333 59.733333-4.266667l4.266667 4.266667 98.133333 98.133333 98.133333-98.133333c17.066667-17.066667 46.933333-12.8 59.733334 4.266666 12.8 17.066667 12.8 38.4 0 55.466667L571.733333 384l98.133334 98.133333c17.066667 17.066667 17.066667 42.666667 0 59.733334z"  horiz-adv-x="1024" />
      
      <glyph glyph-name="add-copy" unicode="&#59550;" d="M810.666667 341.33333300000004h-256v-256h-85.333334v256H213.333333v85.333334h256V682.666667h85.333334v-256h256v-85.333334z"  horiz-adv-x="1024" />
      
      <glyph glyph-name="sequence" unicode="&#58881;" d="M508.24022388 382.71920213l6.56696725-0.1462737c0.67945042-0.01534972 1.24152068 0.57877438 1.25551601 1.32639552 0.01354387 0.74807266-0.52595333 1.36657567-1.20585515 1.38147393l-6.56696728 0.1462737c-0.67945042 0.01534972-1.24152068-0.57877438-1.25551601-1.32639553-0.01354387-0.74807266 0.52595333-1.36657567 1.20585519-1.38147393zM599.466667 722.528V780.373333c0 10.88 9.216 19.626667 20.48 19.626667 4.213333 0 8.32-1.216 11.754666-3.530667l133.952-89.866666c9.301333-6.208 11.52-18.453333 5.045334-27.306667-1.386667-1.898667-3.072-3.498667-5.045334-4.832l-133.952-89.877333c-9.258667-6.186667-22.037333-4.042667-28.512 4.832a19.114667 19.114667 0 0 0-3.722666 11.264v57.845333H380.906667C229.28 658.528 106.666667 538.773333 106.666667 391.456c0-78.506667 34.944-151.466667 94.762666-201.941333a32 32 0 0 0-41.269333-48.917334C86.133333 203.061333 42.666667 293.81333299999994 42.666667 391.456c0 183.018667 151.605333 331.072 338.24 331.072H599.466667zM392.298667-28.45866699999999c9.258667-6.208 22.037333-4.053333 28.512 4.821334 2.410667 3.306667 3.722667 7.253333 3.722666 11.264V167.32799999999997c0 10.869333-9.216 19.626667-20.48 19.626667-4.213333 0-8.32-1.226667-11.754666-3.541334L258.346667 93.54666699999996c-9.301333-6.197333-11.52-18.453333-5.045334-27.306667 1.386667-1.888 3.072-3.498667 5.045334-4.832l133.952-89.866667zM822.570667 578.4853330000001C882.389333 528.010667 917.333333 455.050667 917.333333 376.544c0-147.328-122.613333-267.072-274.24-267.072H380.8a32 32 0 1 1 0-64h262.293333c186.634667 0 338.24 148.053333 338.24 331.072 0 97.642667-43.466667 188.394667-117.493333 250.858667a32 32 0 0 1-41.28-48.917334z"  horiz-adv-x="1024" />
      
      <glyph glyph-name="search" unicode="&#58970;" d="M883.626667 72.96000000000004l-145.066667 144.64A337.92 337.92 0 0 1 810.666667 426.666667a341.333333 341.333333 0 1 1-341.333334-341.333334 337.92 337.92 0 0 1 209.066667 72.106667l144.64-145.066667a42.666667 42.666667 0 0 1 60.586667 0 42.666667 42.666667 0 0 1 0 60.586667zM213.333333 426.666667a256 256 0 1 0 256-256 256 256 0 0 0-256 256z"  horiz-adv-x="1024" />
      
      <glyph glyph-name="clear" unicode="&#58931;" d="M987.428571 627.809524h-950.857142a36.571429 36.571429 0 0 0 0 73.142857H243.809524V822.857143a73.142857 73.142857 0 0 0 73.142857 73.142857h390.095238a73.142857 73.142857 0 0 0 73.142857-73.142857v-121.904762h207.238095a36.571429 36.571429 0 0 0 0-73.142857zM707.047619 774.095238a48.761905 48.761905 0 0 1-48.761905 48.761905H365.714286a48.761905 48.761905 0 0 1-48.761905-48.761905v-73.142857h390.095238V774.095238zM341.333333 79.238095v390.095238a36.571429 36.571429 0 0 0 73.142857 0v-390.095238a36.571429 36.571429 0 0 0-73.142857 0z m268.190477 0v390.095238a36.571429 36.571429 0 0 0 73.142857 0v-390.095238a36.571429 36.571429 0 0 0-73.142857 0zM158.47619 579.047619a36.254476 36.254476 0 0 0 34.133334-24.380952H195.047619v-560.761905a48.761905 48.761905 0 0 1 48.761905-48.761905h536.380952a48.761905 48.761905 0 0 1 48.761905 48.761905V554.666667h2.438095a36.059429 36.059429 0 0 0 68.266667 0h2.438095v-609.52381a73.142857 73.142857 0 0 0-73.142857-73.142857H195.047619a73.142857 73.142857 0 0 0-73.142857 73.142857V554.666667h2.438095a36.254476 36.254476 0 0 0 34.133333 24.380952z"  horiz-adv-x="1024" />
      
      <glyph glyph-name="my" unicode="&#59275;" d="M800 512c0 160-128 288-288 288s-288-128-288-288c0-108.8 57.6-201.6 147.2-249.6-121.6-48-214.4-153.6-240-288-3.2-16 6.4-35.2 25.6-38.4h6.4c16 0 28.8 9.6 32 25.6 28.8 150.4 160 259.2 313.6 262.4h6.4c156.8 0 284.8 128 284.8 288zM288 512c0 124.8 99.2 224 224 224s224-99.2 224-224c0-121.6-99.2-220.8-220.8-224h-9.6c-121.6 3.2-217.6 102.4-217.6 224zM723.2 220.8c-16 9.6-35.2 6.4-44.8-9.6-9.6-16-6.4-35.2 9.6-44.8 73.6-51.2 124.8-121.6 140.8-204.8 3.2-16 16-25.6 32-25.6h6.4c16 3.2 28.8 19.2 25.6 38.4-19.2 99.2-80 185.6-169.6 246.4z"  horiz-adv-x="1024" />
      
      <glyph glyph-name="mine" unicode="&#58896;" d="M903.168-102.39999999999998c-25.6 0-46.592 19.968-48.128 45.568a343.808 343.808 0 0 1-343.04 323.584c-181.76 0-332.288-142.336-343.04-323.584-1.536-26.624-24.576-46.592-50.688-45.568a48.4352 48.4352 0 0 0-45.568 50.688c13.312 232.448 206.336 414.72 439.296 414.72s425.984-182.272 439.296-414.72a48.128 48.128 0 0 0-45.568-50.688h-2.56zM512 266.24a302.592 302.592 0 0 0-302.08 302.08C209.92 734.72 345.6 870.4 512 870.4c166.4 0 302.08-135.68 302.08-302.08 0-166.4-135.68-302.08-302.08-302.08z m0 507.904c-113.152 0-205.824-92.16-205.824-205.824a205.824 205.824 0 0 1 411.648 0c0 113.664-92.672 205.824-205.824 205.824z"  horiz-adv-x="1024" />
      
      <glyph glyph-name="back" unicode="&#59001;" d="M671.968-16c-12.288 0-24.576 4.672-33.952 14.048L286.048 350.016c-18.752 18.72-18.752 49.12 0 67.872l351.968 352c18.752 18.752 49.12 18.752 67.872 0 18.752-18.72 18.752-49.12 0-67.872l-318.016-318.048 318.016-318.016c18.752-18.752 18.752-49.12 0-67.872C696.544-11.328 684.256-16 671.968-16z"  horiz-adv-x="1024" />
      
      <glyph glyph-name="down" unicode="&#58974;" d="M1007.036029 671.165217c-24.486957 22.26087-62.330435 20.034783-84.591304-2.226087L512.844724 228.173913 103.244724 668.93913c-22.26087 24.486957-60.104348 24.486957-84.591304 2.226087-24.486957-22.26087-24.486957-60.104348-2.226087-84.591304L468.322985 99.06087c11.130435-11.130435 26.713043-20.034783 44.521739-20.034783 15.582609 0 33.391304 6.678261 44.521739 20.034783l451.895652 487.513043C1031.522985 611.06087 1031.522985 648.904348 1007.036029 671.165217z"  horiz-adv-x="1026" />
      
      <glyph glyph-name="loop" unicode="&#59482;" d="M426.666667 117.33333300000004h213.226666C787.413333 117.33333300000004 906.666667 233.65333299999998 906.666667 376.746667c0 76.224-33.984 147.093333-92.16 196.117333a32 32 0 0 0 41.237333 48.938667C928.149333 560.7893329999999 970.666667 472.128 970.666667 376.736 970.666667 197.941333 822.4 53.33333300000004 639.893333 53.33333300000004H426.666667v-55.530666c0-3.904-1.28-7.765333-3.626667-10.976-6.325333-8.64-18.784-10.741333-27.818667-4.693334L264.533333 69.66399999999999a20.085333 20.085333 0 0 0-4.917333 4.704c-6.314667 8.64-4.16 20.576 4.906667 26.613333l130.698666 87.573334c3.36 2.24 7.36 3.434667 11.466667 3.434666 10.986667 0 19.978667-8.533333 19.978667-19.114666V117.33333300000004z m170.666666 597.333334v55.552C597.333333 780.8 606.325333 789.333333 617.312 789.333333c4.117333 0 8.106667-1.184 11.466667-3.445333L759.466667 698.325333c9.066667-6.037333 11.232-17.973333 4.917333-26.613333-1.354667-1.834667-2.986667-3.402667-4.906667-4.693333l-130.698666-87.573334c-9.034667-6.037333-21.493333-3.936-27.808 4.704A18.613333 18.613333 0 0 0 597.333333 595.125333V650.666667H384.106667C236.586667 650.666667 117.333333 534.346667 117.333333 391.253333c0-76.224 33.984-147.093333 92.16-196.117333a32 32 0 0 0-41.237333-48.938667C95.850667 207.21066699999994 53.333333 295.87199999999996 53.333333 391.253333 53.333333 570.058667 201.6 714.666667 384.106667 714.666667H597.333333zM481.738667 469.973333a32 32 0 1 0 63.978666-1.28l-3.456-170.666666a32 32 0 1 0-63.978666 1.28l3.456 170.666666z"  horiz-adv-x="1024" />
      
      <glyph glyph-name="like" unicode="&#59143;" d="M672 704a222.72 222.72 0 0 1-160-67.68A222.592 222.592 0 0 1 352 704c-123.52 0-224-101.184-224-225.6 0-52.256 18.144-103.2 52.928-145.536l285.952-293.984a62.528 62.528 0 0 1 90.208 0l287.808 296.032A227.136 227.136 0 0 1 896 478.4C896 602.816 795.52 704 672 704"  horiz-adv-x="1024" />
      
      <glyph glyph-name="not-like" unicode="&#59144;" d="M797.184 377.504l-284.384-294.016-284.16 292A162.752 162.752 0 0 0 192 478.4C192 567.488 263.808 640 352 640a159.36 159.36 0 0 0 133.28-72.16L512 527.36l26.72 40.48A159.488 159.488 0 0 0 672 640c88.224 0 160-72.512 160-161.6 0-37.536-12.992-74.08-34.816-100.896M672 704a222.72 222.72 0 0 1-160-67.712A222.624 222.624 0 0 1 352 704c-123.52 0-224-101.216-224-225.6 0-52.288 18.176-103.232 52.96-145.536l285.952-293.984a62.4 62.4 0 0 1 45.088-19.168c17.12 0 33.12 6.816 45.12 19.136l287.744 296.064A226.816 226.816 0 0 1 896 478.4C896 602.784 795.52 704 672 704"  horiz-adv-x="1024" />
      
      <glyph glyph-name="playlist" unicode="&#58880;" d="M98.7008 515.7866670000001l205.397333 136.930133c13.2224 8.814933 13.258667 28.2304 0.0704 37.0944L98.7712 827.882667C83.944533 837.851733 64 827.2256 64 809.361067V534.3573329999999c0-17.826133 19.867733-28.458667 34.7008-18.570666zM416 640h512c17.6 0 32 14.4 32 32s-14.4 32-32 32H416c-17.6 0-32-14.4-32-32s14.4-32 32-32zM928 0H96c-17.6 0-32-14.4-32-32s14.4-32 32-32h832c17.6 0 32 14.4 32 32s-14.4 32-32 32zM928 352H96c-17.6 0-32-14.4-32-32s14.4-32 32-32h832c17.6 0 32 14.4 32 32s-14.4 32-32 32z"  horiz-adv-x="1024" />
      
      <glyph glyph-name="random" unicode="&#59194;" d="M807.16 560.55l-28.62-24.1c-13.52-11.38-15.25-31.57-3.87-45.09 6.33-7.52 15.38-11.39 24.5-11.39 7.28 0 14.59 2.47 20.59 7.52l95.85 80.7A32.037 32.037 0 0 1 927 593.1600000000001a32.031 32.031 0 0 1-12.14 24.61L819 693.59c-13.86 10.96-33.99 8.61-44.95-5.25s-8.62-33.99 5.25-44.95l23.98-18.97c-197.4-8.87-262.37-123.84-319.92-225.76-57.24-101.36-106.68-188.9-277.14-188.9H129c-17.67 0-32-14.33-32-32s14.33-32 32-32h77.21c92.77 0 165.49 23.4 222.31 71.55 49.7 42.12 80.64 96.9 110.56 149.88 56.38 99.83 105.39 186.56 268.08 193.36zM129 560.99h77.21c86.64 0 149.27-22.7 197.1-71.43 6.27-6.38 14.55-9.58 22.84-9.58 8.09 0 16.18 3.05 22.41 9.16 12.61 12.38 12.8 32.64 0.42 45.25-28.76 29.3-60.81 50.79-97.98 65.69-41.8 16.76-89.17 24.91-144.8 24.91H129c-17.67 0-32-14.33-32-32s14.33-32 32-32zM914.85 205.30999999999995L819 281.12c-13.86 10.96-33.99 8.61-44.95-5.25s-8.62-33.99 5.25-44.95l26.08-20.62c-106.26 5.06-157.34 45.35-186.94 76.14-12.25 12.74-32.51 13.14-45.25 0.89-12.74-12.25-13.14-32.51-0.89-45.25 29.88-31.08 63.35-53.88 102.31-69.7 38.22-15.52 81.06-24.12 130.37-26.13L778.55 124c-13.52-11.38-15.25-31.57-3.87-45.09 6.33-7.52 15.38-11.39 24.5-11.39 7.28 0 14.59 2.47 20.59 7.52l88.52 74.53a32.14 32.14 0 0 1 11.4 10.3 31.977 31.977 0 0 1 7.31 20.84c-0.15 9.6-4.61 18.64-12.15 24.6z"  horiz-adv-x="1024" />
      
      <glyph glyph-name="prev" unicode="&#59542;" d="M341.333333 412.458667l436.181334 290.773333a21.333333 21.333333 0 0 0 33.152-17.749333v-602.965334a21.333333 21.333333 0 0 0-33.152-17.749333L341.333333 355.541333V85.33333300000004a42.666667 42.666667 0 0 0-85.333333 0V682.666667a42.666667 42.666667 0 1 0 85.333333 0v-270.208z"  horiz-adv-x="1024" />
      
      <glyph glyph-name="next" unicode="&#59546;" d="M682.666667 355.541333L246.485333 64.76800000000003A21.333333 21.333333 0 0 0 213.333333 82.51733300000001V685.482667a21.333333 21.333333 0 0 0 33.152 17.749333L682.666667 412.458667V682.666667a42.666667 42.666667 0 0 0 85.333333 0v-597.333334a42.666667 42.666667 0 0 0-85.333333 0v270.208z"  horiz-adv-x="1024" />
      
    </font>
</defs>
</svg>
